<svg id="svg" version="1.1" xmlns="http://www.w3.org/2000/svg" xmlns:xlink="http://www.w3.org/1999/xlink" width="400" height="400" viewBox="0, 0, 400,400"><g id="svgg"><path id="path0" d="M191.907 20.158 C 191.825 20.241,189.657 20.431,187.090 20.581 C 182.240 20.865,179.454 21.124,175.911 21.620 C 174.766 21.780,173.125 22.010,172.266 22.130 C 169.652 22.495,166.074 23.124,163.542 23.663 C 162.897 23.801,161.901 23.991,161.328 24.087 C 160.755 24.183,159.993 24.357,159.635 24.473 C 159.277 24.589,158.281 24.826,157.422 25.000 C 156.563 25.174,155.566 25.407,155.208 25.519 C 154.607 25.705,154.048 25.858,151.172 26.622 C 149.127 27.164,139.455 30.267,138.411 30.715 C 138.125 30.838,137.188 31.196,136.328 31.510 C 134.367 32.228,133.914 32.402,132.943 32.813 C 132.513 32.994,131.898 33.244,131.576 33.368 C 130.231 33.886,129.489 34.194,126.888 35.318 C 123.927 36.596,117.670 39.643,114.714 41.245 C 110.593 43.478,109.494 44.097,108.814 44.571 C 108.434 44.836,108.045 45.052,107.949 45.052 C 107.854 45.052,107.265 45.404,106.641 45.833 C 106.016 46.263,105.434 46.615,105.348 46.615 C 105.262 46.615,102.763 48.233,99.796 50.212 C 93.322 54.529,90.219 56.840,83.854 62.087 C 73.569 70.565,60.442 84.589,53.852 94.141 C 53.259 95.000,52.695 95.762,52.600 95.833 C 52.379 95.999,46.760 104.416,46.121 105.540 C 45.858 106.002,45.041 107.356,44.306 108.548 C 43.570 109.740,42.969 110.756,42.969 110.806 C 42.969 110.856,42.407 111.872,41.721 113.065 C 40.587 115.036,35.787 124.616,34.826 126.823 C 34.608 127.324,34.194 128.262,33.906 128.906 C 33.479 129.862,32.412 132.539,30.740 136.849 C 30.629 137.135,30.413 137.663,30.260 138.021 C 30.107 138.379,29.734 139.434,29.432 140.365 C 29.129 141.296,28.770 142.261,28.634 142.509 C 28.497 142.758,28.385 143.141,28.385 143.359 C 28.385 143.578,28.280 143.961,28.152 144.209 C 28.023 144.458,27.658 145.540,27.339 146.615 C 27.021 147.689,26.671 148.861,26.561 149.219 C 26.452 149.577,26.218 150.397,26.042 151.042 C 25.865 151.686,25.631 152.507,25.521 152.865 C 25.221 153.839,24.808 155.440,24.479 156.901 C 24.318 157.617,24.083 158.613,23.958 159.115 C 23.432 161.225,22.865 163.922,22.138 167.773 C 17.932 190.066,18.314 216.317,23.165 238.346 C 23.915 241.752,23.993 242.085,24.758 245.117 C 24.912 245.726,25.101 246.606,25.178 247.073 C 25.255 247.540,25.422 247.986,25.550 248.065 C 25.677 248.143,25.781 248.488,25.781 248.831 C 25.781 249.174,25.886 249.724,26.013 250.053 C 26.141 250.382,26.510 251.530,26.834 252.604 C 27.636 255.264,29.401 260.689,29.674 261.328 C 29.796 261.615,30.036 262.259,30.208 262.760 C 30.380 263.262,30.627 263.936,30.755 264.258 C 30.884 264.580,31.107 265.137,31.250 265.495 C 31.393 265.853,31.628 266.439,31.771 266.797 C 31.914 267.155,32.133 267.712,32.257 268.034 C 33.420 271.056,35.581 275.839,38.050 280.859 C 40.024 284.872,40.816 286.315,45.051 293.620 C 47.896 298.527,55.585 309.557,58.758 313.281 C 59.062 313.639,60.232 315.046,61.356 316.406 C 62.480 317.767,63.461 318.939,63.536 319.010 C 63.611 319.082,64.900 320.488,66.401 322.135 C 77.772 334.614,93.374 347.417,106.380 354.944 C 106.810 355.193,107.806 355.781,108.594 356.252 C 113.420 359.135,121.811 363.419,127.148 365.724 C 128.927 366.492,130.072 366.978,130.599 367.188 C 130.885 367.302,131.530 367.573,132.031 367.791 C 132.533 368.008,133.470 368.383,134.115 368.623 C 134.759 368.863,135.521 369.153,135.807 369.269 C 136.094 369.384,136.738 369.620,137.240 369.792 C 137.741 369.964,138.385 370.205,138.672 370.327 C 138.958 370.449,140.365 370.921,141.797 371.376 C 143.229 371.830,144.635 372.290,144.922 372.398 C 145.208 372.506,146.322 372.857,147.396 373.178 C 148.470 373.498,149.642 373.850,150.000 373.960 C 150.358 374.069,151.178 374.303,151.823 374.479 C 152.467 374.656,153.288 374.894,153.646 375.008 C 154.004 375.123,154.707 375.297,155.208 375.395 C 155.710 375.494,156.589 375.686,157.161 375.822 C 157.734 375.959,158.672 376.175,159.245 376.302 C 159.818 376.430,160.814 376.658,161.458 376.809 C 166.330 377.954,175.374 379.369,181.510 379.947 C 196.927 381.400,211.975 381.048,226.302 378.899 C 231.039 378.189,231.517 378.108,235.286 377.364 C 237.265 376.974,240.768 376.198,242.318 375.807 C 245.036 375.122,245.764 374.952,246.552 374.822 C 247.019 374.745,247.465 374.578,247.544 374.450 C 247.623 374.323,247.936 374.219,248.240 374.219 C 248.544 374.219,249.446 374.001,250.243 373.734 C 251.040 373.468,252.923 372.868,254.427 372.401 C 255.931 371.934,257.396 371.454,257.682 371.334 C 257.969 371.214,259.084 370.828,260.160 370.476 C 263.195 369.484,265.341 368.666,268.031 367.474 C 268.710 367.173,269.326 366.927,269.401 366.927 C 269.532 366.927,270.401 366.550,273.438 365.176 C 276.484 363.798,285.130 359.461,287.195 358.276 C 288.388 357.591,289.405 357.031,289.455 357.031 C 289.504 357.031,290.521 356.430,291.713 355.694 C 292.905 354.959,294.257 354.143,294.718 353.881 C 295.918 353.198,304.756 347.276,306.204 346.185 C 306.874 345.680,307.764 345.014,308.182 344.704 C 309.173 343.969,315.716 338.750,315.885 338.558 C 315.957 338.478,316.777 337.770,317.708 336.987 C 331.041 325.765,346.788 306.962,355.008 292.448 C 355.292 291.947,355.612 291.419,355.719 291.276 C 355.827 291.133,356.300 290.313,356.770 289.453 C 357.241 288.594,358.018 287.188,358.497 286.328 C 359.504 284.521,363.240 277.017,364.040 275.195 C 364.339 274.515,364.830 273.402,365.132 272.721 C 366.106 270.524,366.861 268.730,367.188 267.839 C 367.399 267.261,367.759 266.354,368.169 265.365 C 368.585 264.361,369.457 261.964,369.827 260.807 C 370.011 260.234,370.232 259.648,370.320 259.505 C 370.407 259.362,370.629 258.717,370.812 258.073 C 370.995 257.428,371.250 256.698,371.380 256.449 C 371.509 256.200,371.615 255.768,371.615 255.488 C 371.615 255.208,371.718 254.915,371.845 254.836 C 371.972 254.758,372.138 254.370,372.214 253.975 C 372.342 253.310,372.547 252.545,373.192 250.326 C 373.327 249.860,373.548 249.098,373.683 248.633 C 374.294 246.528,374.534 245.632,374.745 244.661 C 374.870 244.089,375.102 243.092,375.260 242.448 C 375.764 240.403,376.491 237.080,376.854 235.156 C 378.791 224.906,379.485 218.717,379.949 207.596 C 380.497 194.441,379.625 181.367,377.333 168.359 C 377.001 166.474,376.237 162.625,375.807 160.677 C 375.569 159.596,375.441 159.063,374.757 156.315 C 374.623 155.778,374.381 154.870,374.219 154.297 C 373.845 152.978,373.447 151.380,373.261 150.453 C 373.182 150.057,373.013 149.669,372.887 149.591 C 372.760 149.513,372.656 149.161,372.656 148.809 C 372.656 148.458,372.551 147.967,372.423 147.718 C 372.294 147.469,371.687 145.684,371.074 143.750 C 370.460 141.816,369.862 140.123,369.745 139.987 C 369.627 139.851,369.531 139.527,369.531 139.267 C 369.531 139.008,369.428 138.592,369.301 138.343 C 368.999 137.748,368.767 137.179,367.317 133.464 C 366.646 131.745,365.861 129.811,365.573 129.167 C 365.285 128.522,364.872 127.585,364.654 127.083 C 363.953 125.465,358.353 114.230,357.644 113.021 C 356.943 111.824,356.375 110.837,355.493 109.279 C 354.993 108.398,354.098 106.932,351.596 102.897 C 350.042 100.391,346.558 95.457,343.414 91.310 C 341.884 89.292,338.775 85.354,338.556 85.156 C 338.476 85.085,337.826 84.323,337.109 83.464 C 331.664 76.929,322.698 68.030,315.885 62.399 C 314.525 61.274,313.118 60.102,312.760 59.794 C 309.279 56.803,296.882 48.170,292.365 45.592 C 287.876 43.029,286.760 42.389,286.198 42.055 C 285.468 41.621,273.599 35.749,272.786 35.420 C 272.500 35.304,271.826 35.022,271.289 34.792 C 270.752 34.563,269.873 34.187,269.336 33.958 C 267.965 33.372,267.602 33.229,265.104 32.292 C 263.887 31.835,262.656 31.367,262.370 31.251 C 262.083 31.136,261.439 30.901,260.938 30.729 C 260.436 30.557,259.792 30.316,259.505 30.194 C 259.219 30.071,257.813 29.600,256.380 29.145 C 254.948 28.691,253.542 28.230,253.255 28.121 C 252.969 28.013,252.207 27.780,251.563 27.604 C 250.918 27.428,250.156 27.189,249.870 27.073 C 249.583 26.957,249.056 26.803,248.698 26.730 C 248.340 26.658,247.578 26.466,247.005 26.303 C 246.432 26.140,245.495 25.892,244.922 25.752 C 244.349 25.612,243.411 25.379,242.839 25.234 C 242.266 25.090,241.299 24.861,240.690 24.725 C 240.081 24.590,239.085 24.367,238.477 24.230 C 237.463 24.002,236.813 23.866,233.333 23.151 C 232.689 23.019,231.341 22.786,230.339 22.634 C 229.336 22.482,227.871 22.256,227.083 22.133 C 222.336 21.390,218.437 20.952,213.021 20.556 C 208.726 20.241,192.135 19.928,191.907 20.158 M199.740 138.172 C 200.384 138.248,201.146 138.405,201.432 138.520 C 201.719 138.636,202.422 138.876,202.995 139.055 C 215.396 142.931,217.108 156.321,205.859 161.463 C 201.548 163.433,199.241 163.893,194.531 163.720 C 186.190 163.413,181.105 160.913,178.693 155.933 C 175.598 149.542,177.911 143.949,185.221 140.146 C 188.994 138.184,194.048 137.497,199.740 138.172 M163.374 175.650 C 170.664 177.861,170.272 187.138,162.787 189.558 C 161.375 190.014,159.898 189.894,157.942 189.164 C 153.492 187.504,152.134 187.728,149.245 190.599 C 146.573 193.255,143.242 198.866,141.423 203.776 C 141.104 204.635,140.736 205.542,140.604 205.791 C 140.472 206.039,140.365 206.422,140.365 206.641 C 140.365 206.859,140.262 207.242,140.136 207.491 C 139.911 207.937,139.656 208.768,139.119 210.807 C 138.353 213.719,138.350 213.733,137.486 218.490 C 137.275 219.651,137.138 226.499,137.050 240.302 L 136.921 260.421 136.364 260.556 C 136.058 260.630,128.424 260.658,119.401 260.619 L 102.995 260.547 102.929 218.908 C 102.881 188.349,102.941 177.175,103.156 176.916 C 103.585 176.399,135.842 176.408,136.523 176.925 C 136.945 177.245,136.979 178.102,136.979 188.310 L 136.980 199.349 139.392 194.531 C 146.487 180.365,155.507 173.263,163.374 175.650 M282.292 175.751 C 286.605 176.424,290.367 177.374,291.728 178.133 C 291.977 178.272,292.313 178.385,292.476 178.385 C 292.860 178.385,297.925 180.877,299.611 181.895 C 303.180 184.050,308.626 188.929,310.478 191.629 C 310.934 192.294,311.663 193.310,312.099 193.886 C 312.761 194.762,315.435 199.891,316.168 201.693 C 317.027 203.803,318.075 207.594,318.507 210.156 C 319.386 215.359,319.187 224.583,318.109 228.646 C 318.014 229.004,317.816 229.824,317.668 230.469 C 317.520 231.113,317.299 231.875,317.176 232.161 C 317.054 232.448,316.764 233.268,316.532 233.984 C 313.159 244.415,303.974 253.899,292.578 258.718 C 292.005 258.960,291.333 259.266,291.084 259.397 C 290.836 259.528,290.453 259.635,290.234 259.635 C 290.016 259.635,289.633 259.741,289.384 259.870 C 288.627 260.264,286.729 260.716,282.813 261.436 C 278.931 262.149,274.367 262.257,269.271 261.755 C 266.461 261.478,265.684 261.351,262.565 260.665 C 261.885 260.516,261.004 260.326,260.609 260.245 C 260.213 260.163,259.825 259.993,259.747 259.866 C 259.669 259.739,259.326 259.635,258.984 259.635 C 258.643 259.635,258.292 259.518,258.203 259.375 C 258.115 259.232,257.826 259.115,257.561 259.115 C 257.297 259.115,256.630 258.887,256.079 258.609 C 255.529 258.331,254.375 257.766,253.516 257.354 C 242.717 252.178,234.439 242.093,231.285 230.273 C 230.722 228.165,230.511 227.206,230.236 225.521 C 229.458 220.750,229.717 212.213,230.761 208.203 C 230.911 207.630,231.153 206.693,231.301 206.120 C 231.449 205.547,231.662 204.844,231.775 204.557 C 231.888 204.271,232.250 203.333,232.579 202.474 C 233.247 200.731,235.449 196.386,236.274 195.182 C 241.762 187.174,246.982 182.935,256.641 178.640 C 259.135 177.531,265.963 175.805,268.054 175.755 C 268.652 175.741,269.434 175.631,269.792 175.511 C 270.639 175.227,280.101 175.408,282.292 175.751 M211.948 176.916 C 212.163 177.175,212.224 188.349,212.175 218.908 L 212.109 260.547 195.443 260.609 C 177.530 260.676,178.211 260.724,178.114 259.375 C 177.914 256.563,178.159 176.813,178.367 176.942 C 178.501 177.024,178.683 176.973,178.773 176.827 C 179.048 176.383,211.578 176.470,211.948 176.916 M272.656 218.602 L 272.656 255.508 276.237 255.378 C 282.988 255.132,289.172 253.567,293.566 250.992 C 294.253 250.590,294.873 250.260,294.945 250.260 C 296.359 250.260,303.798 243.259,306.014 239.844 C 307.518 237.526,309.635 233.384,309.635 232.760 C 309.635 232.560,309.729 232.285,309.843 232.148 C 310.191 231.732,310.991 228.906,311.423 226.563 C 312.773 219.247,312.349 212.523,310.100 205.599 C 307.305 196.993,300.995 189.732,292.969 185.885 C 290.059 184.490,289.356 184.200,287.500 183.630 C 283.407 182.371,281.631 182.081,276.758 181.872 L 272.656 181.696 272.656 218.602 " stroke="none" fill="#fc6404" fill-rule="evenodd"></path><path id="path1" d="M207.096 19.971 C 207.347 20.037,207.757 20.037,208.008 19.971 C 208.258 19.906,208.053 19.852,207.552 19.852 C 207.051 19.852,206.846 19.906,207.096 19.971 M74.337 70.117 L 73.307 71.224 74.414 70.195 C 75.443 69.237,75.641 69.010,75.443 69.010 C 75.401 69.010,74.903 69.508,74.337 70.117 M327.474 72.656 C 328.033 73.229,328.550 73.698,328.621 73.698 C 328.693 73.698,328.294 73.229,327.734 72.656 C 327.175 72.083,326.659 71.615,326.587 71.615 C 326.515 71.615,326.915 72.083,327.474 72.656 M68.603 75.846 L 67.839 76.693 68.685 75.928 C 69.150 75.507,69.531 75.126,69.531 75.081 C 69.531 74.880,69.316 75.057,68.603 75.846 M177.679 150.651 C 177.681 151.367,177.731 151.629,177.791 151.233 C 177.851 150.838,177.849 150.252,177.787 149.931 C 177.726 149.611,177.677 149.935,177.679 150.651 M193.034 163.461 C 193.285 163.526,193.695 163.526,193.945 163.461 C 194.196 163.395,193.991 163.342,193.490 163.342 C 192.988 163.342,192.783 163.395,193.034 163.461 M272.982 175.700 C 273.232 175.766,273.643 175.766,273.893 175.700 C 274.144 175.635,273.939 175.581,273.438 175.581 C 272.936 175.581,272.731 175.635,272.982 175.700 M276.500 175.705 C 276.824 175.767,277.293 175.765,277.542 175.700 C 277.791 175.635,277.526 175.584,276.953 175.587 C 276.380 175.589,276.176 175.643,276.500 175.705 M111.393 177.018 C 116.012 177.058,123.571 177.058,128.190 177.018 C 132.809 176.978,129.030 176.946,119.792 176.946 C 110.553 176.946,106.774 176.978,111.393 177.018 M186.914 177.018 C 191.533 177.058,199.092 177.058,203.711 177.018 C 208.330 176.978,204.551 176.946,195.313 176.946 C 186.074 176.946,182.295 176.978,186.914 177.018 M102.992 218.620 C 102.992 241.393,103.022 250.671,103.060 239.237 C 103.097 227.803,103.097 209.171,103.060 197.831 C 103.022 186.491,102.992 195.846,102.992 218.620 M273.506 181.437 C 273.902 181.497,274.488 181.495,274.808 181.433 C 275.129 181.372,274.805 181.323,274.089 181.324 C 273.372 181.326,273.110 181.377,273.506 181.437 M380.274 192.318 C 380.277 192.891,380.330 193.094,380.393 192.770 C 380.455 192.446,380.452 191.978,380.387 191.729 C 380.322 191.480,380.271 191.745,380.274 192.318 M18.839 197.266 C 18.840 198.411,18.886 198.848,18.941 198.235 C 18.996 197.623,18.995 196.685,18.939 196.152 C 18.883 195.619,18.838 196.120,18.839 197.266 M18.839 203.516 C 18.840 204.661,18.886 205.098,18.941 204.485 C 18.996 203.873,18.995 202.935,18.939 202.402 C 18.883 201.869,18.838 202.370,18.839 203.516 M380.269 208.594 C 380.269 209.095,380.322 209.300,380.388 209.049 C 380.453 208.799,380.453 208.389,380.388 208.138 C 380.322 207.887,380.269 208.092,380.269 208.594 M312.305 215.755 C 312.308 216.328,312.361 216.532,312.424 216.208 C 312.486 215.884,312.484 215.415,312.419 215.166 C 312.353 214.917,312.302 215.182,312.305 215.755 M318.810 217.188 C 318.810 217.689,318.864 217.894,318.930 217.643 C 318.995 217.393,318.995 216.982,318.930 216.732 C 318.864 216.481,318.810 216.686,318.810 217.188 M318.810 219.531 C 318.810 220.033,318.864 220.238,318.930 219.987 C 318.995 219.736,318.995 219.326,318.930 219.076 C 318.864 218.825,318.810 219.030,318.810 219.531 M312.300 221.354 C 312.300 221.855,312.354 222.061,312.419 221.810 C 312.485 221.559,312.485 221.149,312.419 220.898 C 312.354 220.648,312.300 220.853,312.300 221.354 M306.496 249.154 L 305.599 250.130 306.576 249.233 C 307.484 248.397,307.672 248.177,307.473 248.177 C 307.429 248.177,306.990 248.617,306.496 249.154 M111.393 260.351 C 116.012 260.391,123.571 260.391,128.190 260.351 C 132.809 260.312,129.030 260.279,119.792 260.279 C 110.553 260.279,106.774 260.312,111.393 260.351 M186.803 260.351 C 191.504 260.391,199.121 260.391,203.730 260.351 C 208.339 260.312,204.492 260.279,195.182 260.279 C 185.872 260.279,182.102 260.312,186.803 260.351 M330.583 325.065 L 329.818 325.911 330.664 325.147 C 331.453 324.434,331.630 324.219,331.429 324.219 C 331.384 324.219,331.003 324.600,330.583 325.065 M324.337 331.315 L 323.307 332.422 324.414 331.392 C 325.443 330.435,325.641 330.208,325.443 330.208 C 325.401 330.208,324.903 330.706,324.337 331.315 M76.302 332.634 C 76.302 332.678,76.683 333.059,77.148 333.480 L 77.995 334.245 77.230 333.398 C 76.517 332.610,76.302 332.432,76.302 332.634 M194.336 381.179 C 194.873 381.235,195.752 381.235,196.289 381.179 C 196.826 381.123,196.387 381.077,195.313 381.077 C 194.238 381.077,193.799 381.123,194.336 381.179 M202.930 381.179 C 203.467 381.235,204.346 381.235,204.883 381.179 C 205.420 381.123,204.980 381.077,203.906 381.077 C 202.832 381.077,202.393 381.123,202.930 381.179 " stroke="none" fill="#ea8f56" fill-rule="evenodd"></path><path id="path2" d="M187.829 20.239 C 188.225 20.299,188.811 20.297,189.131 20.235 C 189.451 20.174,189.128 20.125,188.411 20.127 C 187.695 20.129,187.433 20.179,187.829 20.239 M210.352 20.236 C 210.674 20.298,211.201 20.298,211.523 20.236 C 211.846 20.174,211.582 20.123,210.938 20.123 C 210.293 20.123,210.029 20.174,210.352 20.236 M77.201 67.513 L 76.172 68.620 77.279 67.590 C 77.887 67.024,78.385 66.526,78.385 66.484 C 78.385 66.287,78.159 66.484,77.201 67.513 M323.828 69.271 C 324.534 69.987,325.169 70.573,325.241 70.573 C 325.312 70.573,324.794 69.987,324.089 69.271 C 323.383 68.555,322.747 67.969,322.676 67.969 C 322.604 67.969,323.123 68.555,323.828 69.271 M71.354 73.047 C 70.287 74.121,69.473 75.000,69.544 75.000 C 69.616 75.000,70.548 74.121,71.615 73.047 C 72.682 71.973,73.496 71.094,73.424 71.094 C 73.353 71.094,72.421 71.973,71.354 73.047 M330.990 76.432 C 331.475 76.934,331.932 77.344,332.003 77.344 C 332.075 77.344,331.736 76.934,331.250 76.432 C 330.764 75.931,330.308 75.521,330.236 75.521 C 330.165 75.521,330.504 75.931,330.990 76.432 M66.653 78.060 L 65.755 79.036 66.732 78.139 C 67.269 77.645,67.708 77.206,67.708 77.162 C 67.708 76.964,67.488 77.151,66.653 78.060 M194.604 138.213 C 195.289 138.266,196.344 138.266,196.948 138.211 C 197.552 138.157,196.992 138.112,195.703 138.113 C 194.414 138.114,193.920 138.159,194.604 138.213 M209.375 143.099 C 209.861 143.600,210.317 144.010,210.389 144.010 C 210.460 144.010,210.121 143.600,209.635 143.099 C 209.150 142.598,208.693 142.188,208.622 142.188 C 208.550 142.188,208.889 142.598,209.375 143.099 M180.583 143.555 L 179.818 144.401 180.664 143.636 C 181.130 143.215,181.510 142.835,181.510 142.790 C 181.510 142.589,181.296 142.766,180.583 143.555 M180.208 158.154 C 180.208 158.199,180.589 158.580,181.055 159.001 L 181.901 159.766 181.136 158.919 C 180.423 158.130,180.208 157.953,180.208 158.154 M191.471 163.461 C 191.722 163.526,192.132 163.526,192.383 163.461 C 192.633 163.395,192.428 163.342,191.927 163.342 C 191.426 163.342,191.221 163.395,191.471 163.461 M197.721 163.461 C 197.972 163.526,198.382 163.526,198.633 163.461 C 198.883 163.395,198.678 163.342,198.177 163.342 C 197.676 163.342,197.471 163.395,197.721 163.461 M270.638 175.707 C 271.032 175.767,271.676 175.767,272.070 175.707 C 272.464 175.648,272.142 175.599,271.354 175.599 C 270.566 175.599,270.244 175.648,270.638 175.707 M278.320 175.705 C 278.643 175.767,279.170 175.767,279.492 175.705 C 279.814 175.643,279.551 175.592,278.906 175.592 C 278.262 175.592,277.998 175.643,278.320 175.705 M178.252 218.490 C 178.252 241.191,178.283 250.479,178.320 239.128 C 178.358 227.777,178.358 209.202,178.320 197.852 C 178.283 186.501,178.252 195.788,178.252 218.490 M148.168 181.706 L 146.745 183.203 148.242 181.780 C 149.633 180.457,149.859 180.208,149.666 180.208 C 149.625 180.208,148.951 180.882,148.168 181.706 M277.412 181.697 C 277.808 181.757,278.394 181.756,278.715 181.694 C 279.035 181.632,278.711 181.583,277.995 181.585 C 277.279 181.587,277.017 181.637,277.412 181.697 M272.522 219.661 C 272.522 239.570,272.553 247.676,272.591 237.675 C 272.629 227.674,272.629 211.384,272.591 201.477 C 272.553 191.570,272.522 199.753,272.522 219.661 M241.918 188.477 L 240.495 189.974 241.992 188.551 C 243.383 187.228,243.609 186.979,243.416 186.979 C 243.375 186.979,242.701 187.653,241.918 188.477 M306.771 187.891 C 307.257 188.392,307.713 188.802,307.784 188.802 C 307.856 188.802,307.517 188.392,307.031 187.891 C 306.545 187.389,306.089 186.979,306.018 186.979 C 305.946 186.979,306.285 187.389,306.771 187.891 M19.091 192.057 C 19.093 192.917,19.141 193.237,19.199 192.769 C 19.257 192.301,19.256 191.598,19.196 191.206 C 19.137 190.815,19.090 191.198,19.091 192.057 M380.301 195.443 C 380.300 196.732,380.344 197.292,380.399 196.688 C 380.453 196.083,380.454 195.028,380.400 194.344 C 380.346 193.659,380.302 194.154,380.301 195.443 M136.727 200.143 C 136.734 200.817,136.769 200.852,137.014 200.431 C 137.214 200.086,137.212 199.868,137.006 199.662 C 136.797 199.453,136.721 199.583,136.727 200.143 M380.302 205.469 C 380.302 206.829,380.346 207.386,380.400 206.706 C 380.453 206.025,380.453 204.912,380.400 204.232 C 380.346 203.551,380.302 204.108,380.302 205.469 M19.091 208.724 C 19.093 209.583,19.141 209.904,19.199 209.435 C 19.257 208.967,19.256 208.264,19.196 207.873 C 19.137 207.482,19.090 207.865,19.091 208.724 M19.592 216.667 C 19.592 217.168,19.645 217.373,19.711 217.122 C 19.776 216.872,19.776 216.462,19.711 216.211 C 19.645 215.960,19.592 216.165,19.592 216.667 M136.806 224.479 C 136.806 225.553,136.852 225.993,136.908 225.456 C 136.965 224.919,136.965 224.040,136.908 223.503 C 136.852 222.965,136.806 223.405,136.806 224.479 M301.945 245.117 L 300.391 246.745 302.018 245.190 C 303.530 243.747,303.765 243.490,303.573 243.490 C 303.532 243.490,302.800 244.222,301.945 245.117 M241.406 248.307 C 241.892 248.809,242.348 249.219,242.420 249.219 C 242.491 249.219,242.153 248.809,241.667 248.307 C 241.181 247.806,240.725 247.396,240.653 247.396 C 240.581 247.396,240.920 247.806,241.406 248.307 M304.801 250.846 L 304.036 251.693 304.883 250.928 C 305.672 250.215,305.849 250.000,305.648 250.000 C 305.603 250.000,305.222 250.381,304.801 250.846 M273.767 255.916 C 274.162 255.976,274.748 255.974,275.069 255.912 C 275.389 255.851,275.065 255.802,274.349 255.804 C 273.633 255.806,273.371 255.856,273.767 255.916 M274.031 261.910 C 274.716 261.964,275.771 261.964,276.375 261.909 C 276.979 261.854,276.419 261.810,275.130 261.811 C 273.841 261.812,273.347 261.857,274.031 261.910 M64.844 320.915 C 64.844 320.960,65.225 321.340,65.690 321.761 L 66.536 322.526 65.772 321.680 C 65.059 320.891,64.844 320.714,64.844 320.915 M332.538 322.852 L 331.641 323.828 332.617 322.931 C 333.526 322.095,333.713 321.875,333.515 321.875 C 333.471 321.875,333.032 322.314,332.538 322.852 M68.479 324.805 C 69.117 325.485,69.674 326.042,69.716 326.042 C 69.911 326.042,69.704 325.808,68.555 324.729 L 67.318 323.568 68.479 324.805 M327.598 328.060 L 325.391 330.339 327.669 328.131 C 328.923 326.916,329.948 325.891,329.948 325.852 C 329.948 325.663,329.649 325.944,327.598 328.060 M74.740 331.120 C 75.518 331.908,76.213 332.552,76.284 332.552 C 76.356 332.552,75.778 331.908,75.000 331.120 C 74.222 330.332,73.527 329.688,73.455 329.688 C 73.384 329.688,73.962 330.332,74.740 331.120 M321.875 333.464 C 321.242 334.108,320.783 334.635,320.855 334.635 C 320.927 334.635,321.503 334.108,322.135 333.464 C 322.768 332.819,323.227 332.292,323.155 332.292 C 323.084 332.292,322.508 332.819,321.875 333.464 M182.617 380.388 C 182.868 380.453,183.278 380.453,183.529 380.388 C 183.779 380.322,183.574 380.269,183.073 380.269 C 182.572 380.269,182.367 380.322,182.617 380.388 M215.951 380.388 C 216.201 380.453,216.611 380.453,216.862 380.388 C 217.113 380.322,216.908 380.269,216.406 380.269 C 215.905 380.269,215.700 380.322,215.951 380.388 M189.392 380.916 C 189.787 380.976,190.373 380.974,190.694 380.912 C 191.014 380.851,190.690 380.802,189.974 380.804 C 189.258 380.806,188.996 380.856,189.392 380.916 M208.662 380.916 C 209.058 380.976,209.644 380.974,209.965 380.912 C 210.285 380.851,209.961 380.802,209.245 380.804 C 208.529 380.806,208.267 380.856,208.662 380.916 " stroke="none" fill="#e06f2a" fill-rule="evenodd"></path><path id="path3" d="M199.023 19.971 C 199.274 20.037,199.684 20.037,199.935 19.971 C 200.186 19.906,199.980 19.852,199.479 19.852 C 198.978 19.852,198.773 19.906,199.023 19.971 M190.690 20.232 C 190.941 20.297,191.351 20.297,191.602 20.232 C 191.852 20.166,191.647 20.113,191.146 20.113 C 190.645 20.113,190.439 20.166,190.690 20.232 M207.878 20.232 C 208.128 20.297,208.538 20.297,208.789 20.232 C 209.040 20.166,208.835 20.113,208.333 20.113 C 207.832 20.113,207.627 20.166,207.878 20.232 M186.523 20.502 C 187.061 20.558,187.939 20.558,188.477 20.502 C 189.014 20.446,188.574 20.400,187.500 20.400 C 186.426 20.400,185.986 20.446,186.523 20.502 M211.003 20.502 C 211.540 20.558,212.419 20.558,212.956 20.502 C 213.493 20.446,213.053 20.400,211.979 20.400 C 210.905 20.400,210.465 20.446,211.003 20.502 M180.404 21.017 C 180.726 21.079,181.253 21.079,181.576 21.017 C 181.898 20.955,181.634 20.904,180.990 20.904 C 180.345 20.904,180.081 20.955,180.404 21.017 M217.904 21.017 C 218.226 21.079,218.753 21.079,219.076 21.017 C 219.398 20.955,219.134 20.904,218.490 20.904 C 217.845 20.904,217.581 20.955,217.904 21.017 M176.107 21.534 C 176.357 21.599,176.768 21.599,177.018 21.534 C 177.269 21.468,177.064 21.415,176.563 21.415 C 176.061 21.415,175.856 21.468,176.107 21.534 M222.461 21.534 C 222.712 21.599,223.122 21.599,223.372 21.534 C 223.623 21.468,223.418 21.415,222.917 21.415 C 222.415 21.415,222.210 21.468,222.461 21.534 M172.461 22.055 C 172.712 22.120,173.122 22.120,173.372 22.055 C 173.623 21.989,173.418 21.935,172.917 21.935 C 172.415 21.935,172.210 21.989,172.461 22.055 M226.107 22.055 C 226.357 22.120,226.768 22.120,227.018 22.055 C 227.269 21.989,227.064 21.935,226.563 21.935 C 226.061 21.935,225.856 21.989,226.107 22.055 M105.859 46.094 C 105.430 46.378,105.195 46.609,105.339 46.607 C 105.600 46.603,107.016 45.588,106.771 45.580 C 106.699 45.578,106.289 45.809,105.859 46.094 M100.065 49.770 C 99.177 50.338,98.890 50.720,99.674 50.289 C 100.272 49.960,101.208 49.236,101.042 49.231 C 100.970 49.229,100.531 49.471,100.065 49.770 M97.266 51.716 L 96.484 52.387 97.331 51.827 C 97.796 51.519,98.177 51.216,98.177 51.154 C 98.177 50.959,98.067 51.027,97.266 51.716 M83.708 62.044 L 82.943 62.891 83.789 62.126 C 84.578 61.413,84.755 61.198,84.554 61.198 C 84.509 61.198,84.128 61.579,83.708 62.044 M80.062 65.169 L 79.297 66.016 80.143 65.251 C 80.932 64.538,81.109 64.323,80.908 64.323 C 80.863 64.323,80.482 64.704,80.062 65.169 M320.052 66.016 C 320.538 66.517,320.994 66.927,321.066 66.927 C 321.137 66.927,320.798 66.517,320.313 66.016 C 319.827 65.514,319.370 65.104,319.299 65.104 C 319.227 65.104,319.566 65.514,320.052 66.016 M77.462 67.513 L 76.432 68.620 77.539 67.590 C 78.148 67.024,78.646 66.526,78.646 66.484 C 78.646 66.287,78.419 66.484,77.462 67.513 M323.166 68.815 C 324.245 69.965,324.479 70.172,324.479 69.976 C 324.479 69.934,323.923 69.378,323.242 68.739 L 322.005 67.578 323.166 68.815 M71.611 73.112 L 68.359 76.432 71.680 73.181 C 74.764 70.161,75.118 69.792,74.931 69.792 C 74.893 69.792,73.399 71.286,71.611 73.112 M331.250 76.953 C 331.736 77.454,332.192 77.865,332.264 77.865 C 332.335 77.865,331.996 77.454,331.510 76.953 C 331.025 76.452,330.568 76.042,330.497 76.042 C 330.425 76.042,330.764 76.452,331.250 76.953 M66.520 78.451 L 65.755 79.297 66.602 78.532 C 67.390 77.819,67.568 77.604,67.366 77.604 C 67.322 77.604,66.941 77.985,66.520 78.451 M333.854 79.818 C 334.340 80.319,334.796 80.729,334.868 80.729 C 334.939 80.729,334.600 80.319,334.115 79.818 C 333.629 79.316,333.173 78.906,333.101 78.906 C 333.029 78.906,333.368 79.316,333.854 79.818 M64.309 80.924 L 63.411 81.901 64.388 81.004 C 65.297 80.168,65.484 79.948,65.285 79.948 C 65.242 79.948,64.802 80.387,64.309 80.924 M348.177 97.917 C 348.483 98.346,348.792 98.698,348.864 98.698 C 348.935 98.698,348.743 98.346,348.438 97.917 C 348.132 97.487,347.823 97.135,347.751 97.135 C 347.679 97.135,347.871 97.487,348.177 97.917 M194.733 137.951 C 195.346 138.006,196.283 138.006,196.817 137.950 C 197.350 137.894,196.849 137.849,195.703 137.850 C 194.557 137.851,194.121 137.896,194.733 137.951 M180.583 143.294 L 179.818 144.141 180.664 143.376 C 181.453 142.663,181.630 142.448,181.429 142.448 C 181.384 142.448,181.003 142.829,180.583 143.294 M209.115 142.529 C 209.115 142.574,209.495 142.955,209.961 143.376 L 210.807 144.141 210.042 143.294 C 209.329 142.505,209.115 142.328,209.115 142.529 M177.433 150.651 C 177.434 151.797,177.480 152.233,177.535 151.621 C 177.590 151.008,177.589 150.071,177.533 149.537 C 177.477 149.004,177.432 149.505,177.433 150.651 M213.352 151.302 C 213.352 151.947,213.403 152.210,213.465 151.888 C 213.527 151.566,213.527 151.038,213.465 150.716 C 213.403 150.394,213.352 150.658,213.352 151.302 M23.989 158.117 C 23.972 158.356,23.891 158.766,23.808 159.028 C 23.666 159.480,23.674 159.481,23.956 159.041 C 24.120 158.786,24.201 158.376,24.136 158.130 C 24.030 157.727,24.016 157.725,23.989 158.117 M193.306 163.735 C 194.423 163.784,196.181 163.784,197.212 163.735 C 198.244 163.685,197.331 163.645,195.182 163.646 C 193.034 163.646,192.190 163.687,193.306 163.735 M20.894 174.740 C 20.894 175.241,20.947 175.446,21.013 175.195 C 21.078 174.945,21.078 174.535,21.013 174.284 C 20.947 174.033,20.894 174.238,20.894 174.740 M378.446 175.521 C 378.446 176.022,378.499 176.227,378.565 175.977 C 378.630 175.726,378.630 175.316,378.565 175.065 C 378.499 174.814,378.446 175.020,378.446 175.521 M159.577 175.451 C 160.190 175.506,161.127 175.506,161.661 175.450 C 162.194 175.394,161.693 175.349,160.547 175.350 C 159.401 175.351,158.965 175.396,159.577 175.451 M272.735 175.455 C 274.139 175.502,276.365 175.501,277.683 175.454 C 279.000 175.407,277.852 175.369,275.130 175.369 C 272.409 175.369,271.331 175.408,272.735 175.455 M111.523 176.758 C 116.071 176.798,123.512 176.798,128.060 176.758 C 132.607 176.718,128.887 176.685,119.792 176.685 C 110.697 176.685,106.976 176.718,111.523 176.758 M187.044 176.758 C 191.592 176.798,199.033 176.798,203.581 176.758 C 208.128 176.718,204.408 176.685,195.313 176.685 C 186.217 176.685,182.497 176.718,187.044 176.758 M165.885 176.904 C 165.885 176.949,166.266 177.330,166.732 177.751 L 167.578 178.516 166.813 177.669 C 166.100 176.880,165.885 176.703,165.885 176.904 M20.378 178.776 C 20.381 179.349,20.434 179.553,20.497 179.229 C 20.559 178.905,20.557 178.436,20.491 178.187 C 20.426 177.938,20.375 178.203,20.378 178.776 M378.972 179.557 C 378.975 180.130,379.028 180.334,379.090 180.010 C 379.153 179.686,379.150 179.217,379.085 178.968 C 379.020 178.719,378.969 178.984,378.972 179.557 M147.908 181.706 L 146.484 183.203 147.982 181.780 C 149.373 180.457,149.598 180.208,149.405 180.208 C 149.364 180.208,148.691 180.882,147.908 181.706 M273.367 181.698 C 273.829 181.756,274.649 181.757,275.190 181.700 C 275.730 181.644,275.352 181.597,274.349 181.596 C 273.346 181.595,272.904 181.641,273.367 181.698 M277.930 181.957 C 278.324 182.017,278.968 182.017,279.362 181.957 C 279.756 181.898,279.434 181.849,278.646 181.849 C 277.858 181.849,277.536 181.898,277.930 181.957 M19.863 183.594 C 19.863 184.238,19.913 184.502,19.975 184.180 C 20.038 183.857,20.038 183.330,19.975 183.008 C 19.913 182.686,19.863 182.949,19.863 183.594 M379.505 184.896 C 379.505 185.684,379.554 186.006,379.614 185.612 C 379.673 185.218,379.673 184.574,379.614 184.180 C 379.554 183.786,379.505 184.108,379.505 184.896 M241.789 188.346 L 240.234 189.974 241.862 188.420 C 243.374 186.976,243.609 186.719,243.416 186.719 C 243.376 186.719,242.644 187.451,241.789 188.346 M306.510 187.321 C 306.510 187.366,306.891 187.747,307.357 188.167 L 308.203 188.932 307.438 188.086 C 306.725 187.297,306.510 187.120,306.510 187.321 M19.362 190.885 C 19.362 192.103,19.407 192.601,19.462 191.992 C 19.516 191.383,19.516 190.387,19.462 189.779 C 19.407 189.170,19.362 189.668,19.362 190.885 M160.096 189.772 C 160.564 189.830,161.267 189.829,161.658 189.769 C 162.050 189.710,161.667 189.663,160.807 189.664 C 159.948 189.665,159.628 189.714,160.096 189.772 M308.594 189.665 C 308.594 189.710,308.975 190.090,309.440 190.511 L 310.286 191.276 309.522 190.430 C 308.809 189.641,308.594 189.464,308.594 189.665 M380.046 193.490 C 380.046 195.137,380.089 195.811,380.140 194.987 C 380.192 194.163,380.192 192.816,380.140 191.992 C 380.089 191.169,380.046 191.842,380.046 193.490 M301.823 192.057 C 302.309 192.559,302.765 192.969,302.837 192.969 C 302.908 192.969,302.569 192.559,302.083 192.057 C 301.597 191.556,301.141 191.146,301.070 191.146 C 300.998 191.146,301.337 191.556,301.823 192.057 M19.085 195.443 C 19.087 196.159,19.137 196.421,19.197 196.025 C 19.257 195.629,19.256 195.043,19.194 194.723 C 19.132 194.403,19.083 194.727,19.085 195.443 M19.091 205.078 C 19.093 205.938,19.141 206.258,19.199 205.790 C 19.257 205.322,19.256 204.618,19.196 204.227 C 19.137 203.836,19.090 204.219,19.091 205.078 M380.044 207.552 C 380.044 209.056,380.087 209.671,380.140 208.919 C 380.193 208.167,380.193 206.937,380.140 206.185 C 380.087 205.433,380.044 206.048,380.044 207.552 M19.360 210.026 C 19.361 211.172,19.407 211.608,19.462 210.996 C 19.517 210.383,19.516 209.446,19.460 208.912 C 19.404 208.379,19.359 208.880,19.360 210.026 M230.008 212.240 C 230.008 212.741,230.062 212.946,230.127 212.695 C 230.193 212.445,230.193 212.035,230.127 211.784 C 230.062 211.533,230.008 211.738,230.008 212.240 M318.810 213.021 C 318.810 213.522,318.864 213.727,318.930 213.477 C 318.995 213.226,318.995 212.816,318.930 212.565 C 318.864 212.314,318.810 212.520,318.810 213.021 M311.779 213.281 C 311.779 213.783,311.833 213.988,311.898 213.737 C 311.964 213.486,311.964 213.076,311.898 212.826 C 311.833 212.575,311.779 212.780,311.779 213.281 M379.502 216.016 C 379.504 216.732,379.554 216.994,379.614 216.598 C 379.674 216.202,379.672 215.616,379.610 215.296 C 379.549 214.976,379.500 215.299,379.502 216.016 M229.748 216.667 C 229.748 217.168,229.802 217.373,229.867 217.122 C 229.933 216.872,229.933 216.462,229.867 216.211 C 229.802 215.960,229.748 216.165,229.748 216.667 M19.866 217.318 C 19.868 218.034,19.919 218.296,19.979 217.900 C 20.038 217.504,20.037 216.918,19.975 216.598 C 19.913 216.278,19.864 216.602,19.866 217.318 M319.085 218.359 C 319.087 219.076,319.137 219.338,319.197 218.942 C 319.257 218.546,319.256 217.960,319.194 217.640 C 319.132 217.319,319.083 217.643,319.085 218.359 M229.762 219.661 C 229.764 220.378,229.815 220.640,229.874 220.244 C 229.934 219.848,229.933 219.262,229.871 218.942 C 229.809 218.621,229.760 218.945,229.762 219.661 M378.977 221.354 C 378.977 221.999,379.028 222.262,379.090 221.940 C 379.152 221.618,379.152 221.090,379.090 220.768 C 379.028 220.446,378.977 220.710,378.977 221.354 M20.378 222.266 C 20.381 222.839,20.434 223.042,20.497 222.718 C 20.559 222.394,20.557 221.926,20.491 221.677 C 20.426 221.428,20.375 221.693,20.378 222.266 M137.070 223.698 C 137.070 224.915,137.115 225.413,137.170 224.805 C 137.225 224.196,137.225 223.200,137.170 222.591 C 137.115 221.982,137.070 222.480,137.070 223.698 M230.008 223.958 C 230.008 224.460,230.062 224.665,230.127 224.414 C 230.193 224.163,230.193 223.753,230.127 223.503 C 230.062 223.252,230.008 223.457,230.008 223.958 M311.779 223.958 C 311.779 224.460,311.833 224.665,311.898 224.414 C 311.964 224.163,311.964 223.753,311.898 223.503 C 311.833 223.252,311.779 223.457,311.779 223.958 M318.810 223.958 C 318.810 224.460,318.864 224.665,318.930 224.414 C 318.995 224.163,318.995 223.753,318.930 223.503 C 318.864 223.252,318.810 223.457,318.810 223.958 M378.446 225.260 C 378.446 225.762,378.499 225.967,378.565 225.716 C 378.630 225.465,378.630 225.055,378.565 224.805 C 378.499 224.554,378.446 224.759,378.446 225.260 M301.946 244.857 L 300.130 246.745 302.018 244.929 C 303.772 243.242,304.025 242.969,303.834 242.969 C 303.795 242.969,302.945 243.818,301.946 244.857 M242.188 249.349 C 242.965 250.137,243.661 250.781,243.732 250.781 C 243.804 250.781,243.226 250.137,242.448 249.349 C 241.670 248.561,240.975 247.917,240.903 247.917 C 240.832 247.917,241.410 248.561,242.188 249.349 M305.322 250.586 L 304.557 251.432 305.404 250.667 C 306.193 249.954,306.370 249.740,306.169 249.740 C 306.124 249.740,305.743 250.120,305.322 250.586 M280.534 255.127 C 280.785 255.193,281.195 255.193,281.445 255.127 C 281.696 255.062,281.491 255.008,280.990 255.008 C 280.488 255.008,280.283 255.062,280.534 255.127 M273.763 255.660 C 274.443 255.714,275.557 255.714,276.237 255.660 C 276.917 255.607,276.361 255.563,275.000 255.563 C 273.639 255.563,273.083 255.607,273.763 255.660 M102.971 260.215 C 103.114 260.922,136.979 260.806,136.979 260.099 C 136.979 259.866,136.904 259.867,136.667 260.104 C 136.255 260.516,103.240 260.561,103.036 260.150 C 102.963 260.003,102.934 260.032,102.971 260.215 M211.979 260.113 C 211.979 260.341,207.786 260.432,195.247 260.480 L 178.516 260.543 195.167 260.612 C 210.904 260.677,212.778 260.608,212.157 259.987 C 212.059 259.889,211.979 259.946,211.979 260.113 M280.928 261.643 C 281.251 261.705,281.720 261.702,281.969 261.637 C 282.218 261.572,281.953 261.521,281.380 261.524 C 280.807 261.527,280.604 261.580,280.928 261.643 M270.898 261.898 C 271.149 261.964,271.559 261.964,271.810 261.898 C 272.061 261.833,271.855 261.779,271.354 261.779 C 270.853 261.779,270.648 261.833,270.898 261.898 M274.161 262.170 C 274.773 262.225,275.711 262.224,276.244 262.168 C 276.777 262.113,276.276 262.067,275.130 262.068 C 273.984 262.069,273.548 262.115,274.161 262.170 M51.823 304.297 C 52.266 304.941,52.688 305.469,52.759 305.469 C 52.831 305.469,52.527 304.941,52.083 304.297 C 51.640 303.652,51.218 303.125,51.147 303.125 C 51.075 303.125,51.379 303.652,51.823 304.297 M335.270 319.596 L 334.505 320.443 335.352 319.678 C 336.140 318.965,336.318 318.750,336.116 318.750 C 336.072 318.750,335.691 319.131,335.270 319.596 M65.234 321.094 C 65.794 321.667,66.310 322.135,66.382 322.135 C 66.453 322.135,66.054 321.667,65.495 321.094 C 64.935 320.521,64.419 320.052,64.347 320.052 C 64.276 320.052,64.675 320.521,65.234 321.094 M332.930 322.201 L 331.901 323.307 333.008 322.278 C 334.037 321.321,334.234 321.094,334.037 321.094 C 333.995 321.094,333.497 321.592,332.930 322.201 M67.969 324.089 C 68.455 324.590,68.911 325.000,68.982 325.000 C 69.054 325.000,68.715 324.590,68.229 324.089 C 67.743 323.587,67.287 323.177,67.216 323.177 C 67.144 323.177,67.483 323.587,67.969 324.089 M327.340 328.060 L 324.089 331.380 327.409 328.129 C 330.493 325.109,330.847 324.740,330.660 324.740 C 330.622 324.740,329.128 326.234,327.340 328.060 M75.651 331.771 C 76.356 332.487,76.992 333.073,77.064 333.073 C 77.135 333.073,76.617 332.487,75.911 331.771 C 75.206 331.055,74.570 330.469,74.499 330.469 C 74.427 330.469,74.946 331.055,75.651 331.771 M321.354 333.724 C 320.722 334.368,320.263 334.896,320.334 334.896 C 320.406 334.896,320.982 334.368,321.615 333.724 C 322.247 333.079,322.706 332.552,322.634 332.552 C 322.563 332.552,321.987 333.079,321.354 333.724 M78.385 334.196 C 78.385 334.241,78.766 334.622,79.232 335.042 L 80.078 335.807 79.313 334.961 C 78.600 334.172,78.385 333.995,78.385 334.196 M293.750 354.450 C 293.318 354.804,293.274 354.892,293.620 354.714 C 294.469 354.275,294.940 353.914,294.661 353.916 C 294.518 353.917,294.108 354.157,293.750 354.450 M173.242 379.086 C 173.493 379.151,173.903 379.151,174.154 379.086 C 174.404 379.020,174.199 378.967,173.698 378.967 C 173.197 378.967,172.992 379.020,173.242 379.086 M177.021 379.611 C 177.345 379.674,177.814 379.671,178.063 379.606 C 178.312 379.541,178.047 379.490,177.474 379.493 C 176.901 379.496,176.697 379.549,177.021 379.611 M221.419 379.607 C 221.670 379.672,222.080 379.672,222.331 379.607 C 222.581 379.541,222.376 379.488,221.875 379.488 C 221.374 379.488,221.169 379.541,221.419 379.607 M181.576 380.134 C 181.969 380.194,182.614 380.194,183.008 380.134 C 183.402 380.075,183.079 380.026,182.292 380.026 C 181.504 380.026,181.182 380.075,181.576 380.134 M216.475 380.135 C 216.871 380.195,217.457 380.193,217.777 380.131 C 218.097 380.069,217.773 380.020,217.057 380.022 C 216.341 380.024,216.079 380.075,216.475 380.135 M188.216 380.657 C 188.682 380.715,189.443 380.715,189.909 380.657 C 190.374 380.599,189.993 380.552,189.063 380.552 C 188.132 380.552,187.751 380.599,188.216 380.657 M209.570 380.657 C 210.036 380.715,210.798 380.715,211.263 380.657 C 211.729 380.599,211.348 380.552,210.417 380.552 C 209.486 380.552,209.105 380.599,209.570 380.657 M193.034 380.916 C 193.428 380.975,194.072 380.975,194.466 380.916 C 194.860 380.856,194.538 380.807,193.750 380.807 C 192.962 380.807,192.640 380.856,193.034 380.916 M205.017 380.916 C 205.412 380.976,205.998 380.974,206.319 380.912 C 206.639 380.851,206.315 380.802,205.599 380.804 C 204.883 380.806,204.621 380.856,205.017 380.916 " stroke="none" fill="#ed6c19" fill-rule="evenodd"></path><path id="path4" d="M194.727 19.984 C 195.479 20.036,196.709 20.036,197.461 19.984 C 198.213 19.931,197.598 19.888,196.094 19.888 C 194.590 19.888,193.975 19.931,194.727 19.984 M201.628 19.984 C 202.451 20.036,203.799 20.036,204.622 19.984 C 205.446 19.932,204.772 19.890,203.125 19.890 C 201.478 19.890,200.804 19.932,201.628 19.984 M214.128 20.492 C 214.378 20.558,214.788 20.558,215.039 20.492 C 215.290 20.427,215.085 20.373,214.583 20.373 C 214.082 20.373,213.877 20.427,214.128 20.492 M327.604 73.047 C 328.959 74.408,330.126 75.521,330.198 75.521 C 330.270 75.521,329.220 74.408,327.865 73.047 C 326.510 71.686,325.342 70.573,325.271 70.573 C 325.199 70.573,326.249 71.686,327.604 73.047 M136.777 188.331 C 136.745 194.446,136.807 199.503,136.914 199.569 C 137.092 199.679,137.088 191.053,136.906 181.120 C 136.867 178.971,136.808 182.216,136.777 188.331 M212.106 218.620 C 212.106 241.393,212.137 250.671,212.174 239.237 C 212.212 227.803,212.212 209.171,212.174 197.831 C 212.137 186.491,212.106 195.846,212.106 218.620 M19.852 181.771 C 19.852 182.272,19.906 182.477,19.971 182.227 C 20.037 181.976,20.037 181.566,19.971 181.315 C 19.906 181.064,19.852 181.270,19.852 181.771 M19.331 188.021 C 19.331 188.522,19.385 188.727,19.450 188.477 C 19.516 188.226,19.516 187.816,19.450 187.565 C 19.385 187.314,19.331 187.520,19.331 188.021 M380.008 189.844 C 380.008 190.345,380.062 190.550,380.127 190.299 C 380.193 190.049,380.193 189.639,380.127 189.388 C 380.062 189.137,380.008 189.342,380.008 189.844 M148.944 190.560 L 148.047 191.536 149.023 190.639 C 149.932 189.804,150.120 189.583,149.921 189.583 C 149.877 189.583,149.438 190.023,148.944 190.560 M380.306 200.391 C 380.306 201.966,380.349 202.577,380.401 201.748 C 380.453 200.920,380.452 199.630,380.400 198.884 C 380.348 198.137,380.305 198.815,380.306 200.391 M380.026 211.458 C 380.026 212.246,380.075 212.568,380.134 212.174 C 380.194 211.781,380.194 211.136,380.134 210.742 C 380.075 210.348,380.026 210.671,380.026 211.458 M19.345 213.151 C 19.347 213.867,19.398 214.129,19.458 213.733 C 19.518 213.338,19.516 212.752,19.454 212.431 C 19.392 212.111,19.343 212.435,19.345 213.151 M230.008 213.802 C 230.008 214.303,230.062 214.508,230.127 214.258 C 230.193 214.007,230.193 213.597,230.127 213.346 C 230.062 213.096,230.008 213.301,230.008 213.802 M318.816 214.714 C 318.819 215.286,318.872 215.490,318.934 215.166 C 318.996 214.842,318.994 214.374,318.929 214.125 C 318.864 213.876,318.813 214.141,318.816 214.714 M312.305 218.359 C 312.308 218.932,312.361 219.136,312.424 218.812 C 312.486 218.488,312.484 218.019,312.419 217.770 C 312.353 217.521,312.302 217.786,312.305 218.359 M318.810 222.396 C 318.810 222.897,318.864 223.102,318.930 222.852 C 318.995 222.601,318.995 222.191,318.930 221.940 C 318.864 221.689,318.810 221.895,318.810 222.396 M136.842 243.099 C 136.842 252.409,136.874 256.180,136.914 251.478 C 136.954 246.777,136.954 239.160,136.914 234.551 C 136.874 229.943,136.842 233.789,136.842 243.099 M71.484 327.865 C 72.479 328.867,73.352 329.688,73.424 329.688 C 73.495 329.688,72.740 328.867,71.745 327.865 C 70.750 326.862,69.877 326.042,69.806 326.042 C 69.734 326.042,70.489 326.862,71.484 327.865 M200.586 381.169 C 200.837 381.235,201.247 381.235,201.497 381.169 C 201.748 381.104,201.543 381.050,201.042 381.050 C 200.540 381.050,200.335 381.104,200.586 381.169 " stroke="none" fill="#e46c1c" fill-rule="evenodd"></path></g></svg>